<?xml version="1.0" encoding="utf-8"?>
<!-- Generator: Adobe Illustrator 22.0.1, SVG Export Plug-In . SVG Version: 6.00 Build 0)  -->
<svg version="1.1" id="Layer_1" xmlns="http://www.w3.org/2000/svg" xmlns:xlink="http://www.w3.org/1999/xlink" x="0px" y="0px"
	 viewBox="0 0 1249.2 671.6" style="enable-background:new 0 0 1249.2 671.6;" xml:space="preserve">
<style type="text/css">
	.st0{fill:#42AD9D;}
	.st1{fill:#3BE384;}
	.st2{fill:#B3FD88;}
	.st3{fill:#15DED4;}
	.st4{fill:#11BA90;}
	.st5{fill:#134A3D;}
	.st6{fill:#3AE248;}
	.st7{fill:#B5DC72;}
	.st8{fill:#4DDAC0;}
	.st9{fill:#2FEF92;}
	.st10{font-family:'BigJohn';}
	.st11{font-size:86px;}
	.st12{letter-spacing:-1;}
	.st13{letter-spacing:-3;}
	.st14{letter-spacing:-4;}
	.st15{fill:none;}
</style>
<title>Asset 4</title>
<g id="Layer_2_1_">
	<g id="Layer_1-2">
		<path class="st0" d="M208.5,309.4C201,218.9,229,141.3,294,77.8c41.8-40.8,92.2-66,150.1-74.4c94.6-13.7,176.6,13.2,244.5,80.4
			c40.3,40,65.1,88.8,75.8,144.6c-4.7,3.6-10.1,2.6-15.3,2.1c-5.1-0.5-10.2-1.4-15.2-2.8c-11.8-3.5-23-0.9-34.1,3.1
			c-16.8,6.1-32,15.4-47,25c-6,3.9-11.9,7.9-17.9,11.8c-1.9,1.3-3.8,2.7-6.3,2.9c-8.9-1.5-17-5.5-25.7-7.9
			c-20.8-5.9-42.3-9.2-64-9.8c-13.3-0.2-26.6,0.3-39.9,1.7c-1.1-0.1-2.2-0.5-3.1-1c-9.6-7.3-19.6-13.9-30.9-18
			c-21-7.7-41.8-6.6-62.2,2c-17.5,7.4-32.5,18.5-46.7,31s-26.5,26.6-39,40.6c-1.1,1.3-2.4,2.3-4,3c-2,0.5-4,0.7-6,0.6
			c-30.5,0-61,0-91.4-0.1C213.1,312.6,209.5,313.7,208.5,309.4z"/>
		<path class="st1" d="M629.3,269.7c15.6-9.8,30.6-20.6,46.9-29.3c12.7-6.7,25.5-12.7,39.9-15.1c8.5-1.4,16.5,1.1,24.6,2.7
			c7.9,1.6,15.8,2.3,23.7,0.6c13-2,23.4-9.1,33.2-17.2c4.9-4,9.8-8,14.8-11.9c12-9.4,25.2-11.1,39.5-6.1c11.8,4.1,22.1,10.8,32,18.1
			c8.8,6.5,17.3,13.6,28,17c16.5,5.4,30.8,0.9,43.7-9.7c14.8-12.2,25.7-27.8,36.7-43.3c12.4-17.5,24.1-35.6,38.1-51.9
			c12-14,25.4-26.5,42.9-33.4c19.5-7.7,38.6-5.1,57.2,3.3c22.7,10.3,39.3,27.7,53.4,47.6c21.4,30.2,35.4,63.9,47,98.8
			c7.5,22.5,13,45.4,18.1,68.5c0.2,1.3,0.2,2.7,0.2,4c-3,1.3-6.2,1.7-9.5,1.3c-7-0.2-14,0.2-21,0.2l-510.2-0.4
			c-3.2,0.1-6.3,0-9.5-0.3c-0.6,0-1.1-0.1-1.7-0.2c-3-1.1-5.1-3.6-7.6-5.5c-16.8-13.3-35.2-24.4-54.7-33.1
			C632.9,273.2,629.9,272.9,629.3,269.7z"/>
		<path class="st2" d="M697.1,312c24.5-0.1,49-0.2,73.4-0.2c155.2,0.1,310.5,0.2,465.7,0.4c1.3,0,2.7,0.1,4,0.1
			c-0.7,2.7-3.2,2.1-4.9,2.3c-18.9,2.6-36.8,10.5-51.4,22.7c-11.4,9.5-21.5,20.5-29.9,32.7c-1.5,2.2-3.6,3.9-4.7,6.3l-4.1,3.8
			c-13.2,9.9-27.5,18-41.3,27c-9.5,6.1-19.1,12.1-29,17.7c-31.8,17.7-66.9,28.5-103.2,31.6c-18.4,1.6-36.9,1.2-55.2-1.2
			c-1.5,0-3-0.6-4.2-1.5l-1.1-0.9c-5.8-6-10-13.2-15.4-19.5c-16.4-18.7-36.8-26.7-61.4-23.9c-6.8,0.7-13.5,2-20,4.1
			c-1.7,0.6-3.5,1-5.4,0.3h-1.3c-4.3-0.8-7.3-3.8-10.7-6.2c-10.9-7.9-21.1-16.7-30.5-26.4c-14.3-14.4-28.7-28.7-43-43.1
			c-7.7-7.8-16-15-24-22.5C698.4,314.5,697.1,313.7,697.1,312z"/>
		<path class="st1" d="M566.1,314.4c-7.6,3.9-14.3,9.1-21.3,13.8c-37.2,25.1-75.6,48.1-116.5,66.8c-36.9,16.8-75.2,28.8-115.5,33.8
			c-27.3,3.3-55,2.7-82.1-1.9c-7.9-1.3-15.7-2.9-23.5-4.8c-0.3-1.8,1-2.8,2.2-3.6c17.1-11.9,32.6-25.9,46.2-41.6
			c1-1.1,2.1-2.2,3.2-3.1c0.8-0.6,1.6-1.1,2.5-1.5c36.4-11.3,69.9-30.4,98-56.1c2.3-2.1,4.7-4.3,7.9-5c8.3-0.3,16.6-0.1,25-0.1
			c54.5,0,109.1,0,163.6,0.1c2.5,0,5,0.3,7.4-0.4c1.8-0.5,3.6-0.4,5.4,0.2C570.3,313.8,568,314,566.1,314.4z"/>
		<path class="st3" d="M912.3,453.7c14.2,0.8,28.4,2.6,42.8,2.1c35.4-1.1,69.3-8.5,101.5-23.5c26.8-12.5,50.6-29.8,75.8-45
			c4.2-2.5,7.8-6.2,12.8-7.3c-20.2,31.6-35.6,65.8-55,97.8c-11.1,18.3-23.4,35.7-41.2,48.3c-30.5,21.5-73,24.1-100.6-12.6
			c-13-17.2-22.4-36.6-33.3-55.1C914.1,456.9,913.2,455.3,912.3,453.7z"/>
		<path class="st3" d="M566.1,314.4l3-2.5c1.6-2.3,4.1-2,6.3-2c38,0,76.1,0,114.1,0c2.5-0.1,5,0.5,7.1,1.8l0.4,0.2
			c21.8,18.6,41.2,39.6,61.5,59.7c12.3,12.1,24.5,24.3,38.6,34.5c3.5,2.5,7,5,10.5,7.5c-36,12.2-71.9,13.4-108,0.2
			c-18.7-6.8-35.5-16.7-51.5-28.3C618.8,364.4,592.1,339.7,566.1,314.4z"/>
		<path class="st3" d="M205.2,422.4c-19.2,12.1-40.1,17.1-62.8,14.4c-24.3-2.9-45.1-13.7-63.8-28.7c-31.3-25-55.7-56.1-75.3-91
			c-0.4-1,0.3-1.3,1-1.5c1.6,0,2.8,1,4.1,1.8c36,29.4,75.3,54.5,117.2,74.6c23.7,11.3,48.4,20.5,73.8,27.4
			C201.4,419.8,204.1,419.6,205.2,422.4z"/>
		<path class="st4" d="M205.2,422.4c-18.8-5.6-37.6-11-55.7-18.5c-44.8-18.6-86.3-42.9-124.9-72.2c-5.8-4.4-11.5-9.1-17.2-13.6
			c-0.3-0.3-0.3-0.8,0.1-1.1c0.1-0.1,0.2-0.1,0.3-0.2c2.8-0.4,4.7,1.5,6.7,2.9c13.4,8.7,26.5,17.9,40,26.4
			c29.8,18.8,62.4,29.9,97.1,34.7c34.2,4.7,68.1,3.1,101.4-6.5c2-0.6,4.1-1.6,6.2,0.1c-14.3,16.8-30.1,32-48.4,44.5
			c-1.5,0.8-2.7,1.9-3.7,3.2L205.2,422.4z"/>
		<path class="st5" d="M809,413.8c19.5-6.3,39.1-9.2,59.1-2c13.8,5,24.1,14.5,32.9,25.8c3.8,4.8,7.9,9.4,10.2,15.2
			c-32.3-4.6-63.3-15.5-91.3-32.1C816.2,418.5,812.2,416.8,809,413.8z"/>
		<path class="st6" d="M1149.2,376.3c1.1-5.8,5.5-9.5,8.8-13.8c11.6-15,24.9-28.1,41.6-37.4c11.9-6.7,24.8-10.1,38.2-12.1
			c0.8-0.2,1.6-0.4,2.3-0.7l9,0c-3,3.5-7.3,5.3-11,7.7C1208.6,338.7,1178.9,357.5,1149.2,376.3z"/>
		<path class="st7" d="M564.3,311.8c-2,1.3-4.2,0.7-6.3,0.7c-63.1,0-126.2,0-189.4-0.1c-1.3,0-2.7,0-4,0.1c-1.9,1.1-4,1.7-6.2,1.5
			c-15.4,0-30.9,0.1-46.3-0.1c-100.9,0.2-201.8-0.1-302.7-0.1c-2.1-0.1-4.3-0.2-6.4-0.1c-0.7,0-1.4-0.2-2-0.5c-0.5-0.7-2-1.5-0.2-2
			c1.4-0.4,3-0.1,4.5-0.1c65.9,0.1,131.8,0.1,197.7,0.1c1.9,0,4.5,1.4,5.4-1.8c1.1,1.8,2.8,2,4.7,2c32.1,0,64.2,0,96.2,0
			c1.7,0.1,3.3-0.3,4.8-1c11.4-1.3,22.8-0.4,34.2-0.6c6.6-0.1,13.2,0,19.9-0.2c3.5,0.5,7,0.2,10.5,0.2c60.4,0.1,120.9,0.1,181.3,0.2
			C561.8,309.6,563.5,310.3,564.3,311.8z"/>
		<path class="st8" d="M1,313.3h1.2c1,0.1,1.8,0.6,2.2,1.5c0.2,0.4,0.1,0.9-0.2,1.2l-1,1.1C2.1,316.1,1.4,314.8,1,313.3z"/>
		<path class="st5" d="M564.3,311.8l-3-1.3c-2.6-0.6-4.4-2.3-6.2-4c-17.9-16.6-35.7-33.4-54.6-48.9c-1.3-1-2.7-2.1-2.3-4.1
			c13.5-1.9,27.1-2.2,40.6-2c18.5,0.3,36.9,2.8,54.9,7.3c10.3,2.4,20.5,5.6,30.3,9.5c1.7,0.6,3.5,1,5.3,1.3c2.4,2.4,5.8,3.1,8.8,4.5
			c20.3,9.5,39.3,21.1,56.5,35.5c0.7,0.7,1.4,1.4,2,2.2c-19.6,0.1-39.2,0.1-58.8,0.1c-22.9,0-45.9,0-68.8,0L564.3,311.8z"/>
		<path class="st2" d="M498.2,253.5c8.4,7.3,16.8,14.5,25,22c12.8,11.6,25.4,23.3,38.1,35c-1.5,1.6-3.4,1-5.2,1
			c-60.9,0-121.9,0-182.8-0.1c-1.7,0-3.7,0.7-5.1-1c0.1-3.2,2.9-4.3,4.9-5.8c17.5-13.8,36.8-25.2,57.4-34
			c18.2-7.7,37.3-13.4,56.8-16.9c3.1-0.5,6.2-0.9,9.3-1L498.2,253.5z"/>
		<path class="st3" d="M496.6,252.6c-6.8,3.2-14.4,3.1-21.6,4.8c-38.8,8.9-75,26.6-105.8,51.8c-0.4,0.3-0.7,0.7-1,1.1
			c-1.6,0.9-3.4,1.4-5.2,1.4c-15.1-0.1-30.2,0-45.4-0.1c-1.2,0-2.8,0.5-3.4-1.2c13.4-14.8,26.5-29.8,41.5-43.1
			c14.7-13,30.3-24.5,48.6-31.7c30.5-12,58.6-6.9,84.9,11.8C491.8,249.1,494.2,250.8,496.6,252.6z"/>
		<path class="st2" d="M4.1,315.1l-1.8-1.9c1.8-2,4.1-1.1,6.1-1.1c101.3,0,202.7,0.1,304,0.2c0.5,2.7-1.5,4.3-2.9,6
			c-13.2,16-26.9,31.7-40.5,47.4c-2.4,2.8-5,5.3-7.9,7.5l-1.7,1.1c-11,2.3-21.9,5.5-33.1,7.2c-20.8,3.2-41.7,3.4-62.7,1.9
			c-21.5-1.6-42.3-6.6-62.7-13.6C79,362.4,59,351.2,39.8,338.3c-10.8-7.2-21.7-14.3-32.5-21.4C6.1,316.6,5.2,315.7,4.1,315.1z"/>
		<path class="st5" d="M260.9,373.3c6.3-7.3,12.5-14.6,18.8-21.9c11-12.9,22.4-25.5,32.6-39l52.3,0.1c-3.2,4.5-7.8,7.5-11.9,11
			c-26.1,22.3-56.5,39.1-89.3,49.4C262.6,373.1,261.8,373.2,260.9,373.3z"/>
		<path class="st9" d="M4.1,315.1c1.3-0.2,2.6,0.5,3.2,1.7v1.1l-3.1-2C4.2,315.7,4.1,315.4,4.1,315.1z"/>
		<text transform="matrix(1 0 0 1 82.3 658.05)" class="st1 st10 st11">THE </text>
		<text transform="matrix(1 0 0 1 301.68 658.05)" class="st1 st10 st11">S</text>
		<text transform="matrix(1 0 0 1 351.56 658.05)" class="st1 st10 st11 st12">O</text>
		<text transform="matrix(1 0 0 1 424.75 658.05)" class="st1 st10 st11">UTH</text>
		<text transform="matrix(1 0 0 1 616.96 658.05)" class="st1 st10 st11 st13">P</text>
		<text transform="matrix(1 0 0 1 673.55 658.05)" class="st1 st10 st11 st14">A</text>
		<text transform="matrix(1 0 0 1 741.66 658.05)" class="st1 st10 st11">W INDEX</text>
	</g>
</g>
<rect x="515" y="671.6" class="st15" width="1" height="5.4"/>
</svg>
